<?xml version="1.0" standalone="no"?>
<!DOCTYPE svg PUBLIC "-//W3C//DTD SVG 20010904//EN"
 "http://www.w3.org/TR/2001/REC-SVG-20010904/DTD/svg10.dtd">
<svg version="1.0" xmlns="http://www.w3.org/2000/svg"
 width="750.000000pt" height="1280.000000pt" viewBox="0 0 750.000000 1280.000000"
 preserveAspectRatio="xMidYMid meet">
<metadata>
Created by potrace 1.15, written by Peter Selinger 2001-2017
</metadata>
<g transform="translate(0.000000,1280.000000) scale(0.100000,-0.100000)"
fill="#000000" stroke="none">
<path d="M2710 12778 c-31 -17 -50 -37 -66 -69 -25 -50 -9 86 -214 -1744 -71
-638 -195 -1743 -275 -2457 l-145 -1296 0 -1656 c0 -911 -2 -1656 -4 -1656 -2
0 -48 20 -102 44 -110 48 -218 84 -339 112 -64 15 -118 19 -275 18 -178 0
-204 -3 -293 -27 -489 -131 -860 -545 -974 -1087 -24 -115 -24 -377 0 -507 80
-437 338 -788 715 -978 362 -181 807 -187 1167 -15 131 63 233 137 356 260
202 200 316 405 393 705 20 79 20 104 23 1838 l3 1757 130 0 130 0 3 -1747 3
-1748 22 -97 c108 -469 425 -841 854 -1002 104 -39 273 -76 345 -76 l33 0 0
-88 c0 -192 50 -489 116 -687 94 -286 223 -474 371 -543 77 -36 185 -38 254
-4 93 46 166 143 184 245 15 82 -1 134 -100 318 -145 266 -172 369 -161 604 3
77 12 171 19 209 l12 69 65 35 c124 66 206 127 310 232 58 58 128 139 155 180
124 186 199 397 226 630 72 629 -331 1273 -919 1470 -315 105 -679 77 -1021
-81 -46 -22 -85 -39 -87 -39 -2 0 -4 732 -4 1628 l0 1627 -315 2754 c-344
3012 -318 2816 -391 2862 -22 13 -58 23 -97 26 -52 4 -69 1 -107 -19z"/>
<path d="M4394 12766 c-28 -13 -64 -40 -79 -59 -29 -38 -55 -113 -55 -157 0
-52 31 -131 67 -171 72 -80 -17 -73 1073 -79 l975 -5 3 -122 3 -123 -968 -2
-968 -3 -50 -25 c-173 -87 -176 -344 -5 -440 l45 -25 973 -3 972 -2 0 -130 0
-130 -951 0 c-660 0 -964 -3 -994 -11 -54 -14 -118 -67 -148 -123 -48 -91 -18
-240 62 -307 74 -61 43 -59 1083 -59 l949 0 -3 -122 -3 -123 -975 -5 c-1069
-5 -995 -1 -1063 -64 -93 -86 -93 -276 0 -362 68 -63 -6 -59 1063 -64 l975 -5
0 -130 0 -130 -975 -5 c-1069 -5 -995 -1 -1063 -64 -100 -93 -90 -299 18 -382
73 -55 49 -54 1077 -54 l949 0 -3 -122 -3 -123 -970 -5 c-1091 -6 -1009 1
-1079 -82 -43 -50 -60 -111 -54 -191 8 -98 51 -160 138 -201 45 -21 53 -21
1008 -24 l962 -3 0 -119 0 -119 -962 -3 c-766 -2 -969 -6 -993 -16 -103 -45
-159 -128 -159 -237 0 -122 75 -221 185 -244 34 -7 359 -11 990 -11 l940 0 -3
-122 -3 -123 -975 -5 c-890 -5 -978 -6 -1005 -22 -173 -97 -173 -351 0 -447
27 -14 124 -16 1005 -21 l975 -5 3 -122 3 -123 -934 0 c-575 0 -954 -4 -986
-10 -151 -28 -235 -192 -178 -342 19 -48 77 -110 125 -131 20 -9 271 -13 997
-17 l970 -5 0 -125 0 -125 -945 4 c-665 2 -958 0 -986 -8 -60 -16 -104 -50
-139 -105 -41 -67 -47 -168 -15 -244 23 -53 71 -104 119 -125 19 -9 280 -13
996 -17 l970 -5 5 -2490 5 -2490 23 -59 c82 -216 280 -346 527 -346 274 0 498
170 550 417 13 59 15 864 15 5796 0 5188 -1 5735 -16 5805 -33 163 -121 320
-242 433 -81 76 -153 121 -254 157 l-73 27 -1235 3 -1235 2 -51 -24z"/>
</g>
</svg>
